# xmcd
# Copyright (C) 1995-1998 Ti Kan
#
# Track frame offsets:
#       150
#       17888
#       35568
#       51220
#       69563
#       88064
#       106544
#       125922
#       144093
#       159872
#       180341
#       196659
#       212179
#       229687
#       252206
#       272583
#       289735
#
# Disc length: 4143 seconds
#
# Revision: 0
# Processed by: cddbd v1.5.2PL0 Copyright (c) Steve Scherf et al.
# Submitted via: CD-Import v1.0
#
DISCID=e6102d11
DTITLE=Wavecustom - Wavecustom
DYEAR=07
DGENRE=
TTITLE0=Nostra Preludem
TTITLE1=Illumentus
TTITLE2=The Bottom Of Dream
TTITLE3=Whale Project
TTITLE4=Snow Gate
TTITLE5=Acapulco
TTITLE6=The D-Day
TTITLE7=Time Is Melody
TTITLE8=Electronic's Evolution
TTITLE9=Custom, Wave 'n' Creation
TTITLE10=Bump It
TTITLE11=Extasia
TTITLE12=Popcorn
TTITLE13=Hardware Factor
TTITLE14=Track Extension
TTITLE15=The Black Vision
TTITLE16=Shift My Life
EXTD=
EXTT0=
EXTT1=
EXTT2=
EXTT3=
EXTT4=
EXTT5=
EXTT6=
EXTT7=
EXTT8=
EXTT9=
EXTT10=
EXTT11=
EXTT12=
EXTT13=
EXTT14=
EXTT15=
EXTT16=
PLAYORDER=
